<svg width="17" height="17" viewBox="0 0 17 17" fill="none" xmlns="http://www.w3.org/2000/svg">
<path fill-rule="evenodd" clip-rule="evenodd" d="M12.0727 4.34802H14.3972C14.9456 4.34802 15.3684 4.83098 15.2959 5.37452L14.0728 14.5479C14.0128 14.9983 13.6285 15.3347 13.1741 15.3347H3.30766C2.85324 15.3347 2.46901 14.9983 2.40895 14.5479L1.18584 5.37452C1.11337 4.83098 1.53621 4.34802 2.08455 4.34802H4.40907C4.73608 2.52854 6.32725 1.14795 8.24087 1.14795C10.1545 1.14795 11.7457 2.52854 12.0727 4.34802ZM4.34753 5.73469H2.6328L3.72791 13.948H12.7539L13.849 5.73469H12.1342V7.17462H10.7475V5.73469H5.7342V7.17462H4.34753V5.73469ZM5.8313 4.34802H10.6504C10.3497 3.30083 9.38476 2.53462 8.24087 2.53462C7.09697 2.53462 6.13204 3.30083 5.8313 4.34802Z" fill="white"/>
</svg>
