<svg width="16" height="16" viewBox="0 0 16 16" fill="none" xmlns="http://www.w3.org/2000/svg">
<path d="M8.1125 10.6501C8.38703 9.87335 9.1279 9.31681 9.9987 9.31681C10.8695 9.31681 11.6104 9.87335 11.8849 10.6501H14.6654V11.9835H11.8849C11.6104 12.7603 10.8695 13.3168 9.9987 13.3168C9.1279 13.3168 8.38703 12.7603 8.1125 11.9835H1.33203V10.6501H8.1125ZM4.1125 3.98348C4.38706 3.20669 5.12788 2.65015 5.9987 2.65015C6.8695 2.65015 7.61037 3.20669 7.8849 3.98348H14.6654V5.31681H7.8849C7.61037 6.09361 6.8695 6.65015 5.9987 6.65015C5.12788 6.65015 4.38706 6.09361 4.1125 5.31681H1.33203V3.98348H4.1125ZM5.9987 5.31681C6.36688 5.31681 6.66536 5.01833 6.66536 4.65015C6.66536 4.28196 6.36688 3.98348 5.9987 3.98348C5.63051 3.98348 5.33203 4.28196 5.33203 4.65015C5.33203 5.01833 5.63051 5.31681 5.9987 5.31681ZM9.9987 11.9835C10.3669 11.9835 10.6654 11.685 10.6654 11.3168C10.6654 10.9486 10.3669 10.6501 9.9987 10.6501C9.6305 10.6501 9.33203 10.9486 9.33203 11.3168C9.33203 11.685 9.6305 11.9835 9.9987 11.9835Z" fill="#5C6677"/>
</svg>
